PathFileType	4	(X/Y/Z)	/Users/itak/Documents/Research/Walk-IL/dataset/trc/00452_00167.trc
DataRate	CameraRate	NumFrames	NumMarkers	Units	OrigDataRate	OrigDataStartFrame	OrigNumFrames
100.000000	100.000000	4	53	mm	100.000000	382	437
Frame#	Time	RPSI			LPSI			L3			STRN			T10			C7			CLAV			RBAK			LBAK			LSHO			LUPA			LAEL			LAOL			LWTS			LWPS			LFRA			LIFD			LHPS			LHTS			RSHO			RUPA			RAEL			RAOL			RWTS			RWPS			RFRA			RIFD			RHTS			RHPS			RBHD			LFHD			RFHD			LBHD			LHIP			RHIP			RASI			LASI			LKNE			LTHI			LANK			LTIP			LTOE			LMT1			LMT5			LHEE			RKNE			RTHI			RANK			RTIP			RTOE			RMT1			RMT5			RHEE			
		X1	Y1	Z1	X2	Y2	Z2	X3	Y3	Z3	X4	Y4	Z4	X5	Y5	Z5	X6	Y6	Z6	X7	Y7	Z7	X8	Y8	Z8	X9	Y9	Z9	X10	Y10	Z10	X11	Y11	Z11	X12	Y12	Z12	X13	Y13	Z13	X14	Y14	Z14	X15	Y15	Z15	X16	Y16	Z16	X17	Y17	Z17	X18	Y18	Z18	X19	Y19	Z19	X20	Y20	Z20	X21	Y21	Z21	X22	Y22	Z22	X23	Y23	Z23	X24	Y24	Z24	X25	Y25	Z25	X26	Y26	Z26	X27	Y27	Z27	X28	Y28	Z28	X29	Y29	Z29	X30	Y30	Z30	X31	Y31	Z31	X32	Y32	Z32	X33	Y33	Z33	X34	Y34	Z34	X35	Y35	Z35	X36	Y36	Z36	X37	Y37	Z37	X38	Y38	Z38	X39	Y39	Z39	X40	Y40	Z40	X41	Y41	Z41	X42	Y42	Z42	X43	Y43	Z43	X44	Y44	Z44	X45	Y45	Z45	X46	Y46	Z46	X47	Y47	Z47	X48	Y48	Z48	X49	Y49	Z49	X50	Y50	Z50	X51	Y51	Z51	X52	Y52	Z52	X53	Y53	Z53	

383	3.82	977.536376953125	921.7807006835938	952.7393188476562	1060.06005859375	923.0740966796875	837.2570190429688	1020.572021484375	1032.361694335938	919.0023803710938	1257.565673828125	1227.219604492188	1066.48583984375	1012.655151367188	1156.93896484375	913.21240234375	1062.204956054688	1425.202514648438	968.5262451171875	1228.071899414062	1341.57177734375	1045.653686523438	959.4459228515625	1302.33740234375	1012.383911132812	1085.093872070312	1379.063354492188	865.846435546875	1215.302734375	1402.896362304688	846.3611450195312	1254.813720703125	1285.036010742188	754.1621704101562	1277.955444335938	1068.49365234375	729.9896240234375	1178.376220703125	1056.412475585938	753.116943359375	1330.755126953125	876.0315551757812	783.7736206054688	1299.354370117188	847.4814453125	722.5901489257812	1297.609619140625	980.8610229492188	724.2920532226562	1364.991577148438	718.6854248046875	815.8003540039062	1319.748291015625	766.7152099609375	739.3477783203125	1363.267333984375	796.2899780273438	788.6981811523438	1037.305908203125	1388.657348632812	1139.531860351562	982.2496948242188	1328.113647460938	1193.256958007812	950.5403442382812	1054.21337890625	1266.164794921875	928.4363403320312	1018.200439453125	1213.555053710938	1118.299682617188	918.632568359375	1318.921752929688	1048.5771484375	867.594970703125	1335.676391601562	967.1956176757812	1001.555114746094	1287.840454101562	1192.892822265625	786.2759399414062	1360.618530273438	1168.89990234375	842.4100341796875	1360.415893554688	1104.374633789062	801.1666259765625	1361.340454101562	1092.812744140625	1614.738525390625	1098.067993164062	1276.600463867188	1641.254272460938	1008.191101074219	1225.280517578125	1635.78125	1127.044799804688	1146.400024414062	1626.181640625	929.6873779296875	1248.255126953125	836.3388671875	825.955078125	1002.004150390625	832.6965942382812	1140.639526367188	1116.790771484375	884.4064331054688	1144.731323242188	1275.23095703125	883.257568359375	942.717041015625	1333.021118164062	426.4869079589844	903.7882690429688	1335.289184570312	582.8299560546875	882.4666137695312	1214.700439453125	21.15100288391113	821.358642578125	1310.241821289062	270.8131713867188	873.954345703125	1374.192504882812	30.31551361083984	1003.552978515625	1295.979248046875	40.99056243896484	991.1073608398438	1351.66552734375	26.72896194458008	888.147705078125	1142.620361328125	15.66360759735107	841.4151000976562	1104.367553710938	455.1023254394531	1197.081909179688	1091.765625	696.2614135742188	1229.287963867188	1020.830200195312	30.22954750061035	1162.137451171875	1084.781005859375	310.0112915039062	1207.456665039062	1227.07373046875	36.99149322509766	1247.01123046875	1195.788330078125	42.00968170166016	1182.447265625	1115.666748046875	35.48044967651367	1257.671752929688	994.5287475585938	21.4567756652832	1086.877319335938	
384	3.83	978.651611328125	920.3558349609375	952.8139038085938	1061.1171875	922.1317138671875	837.18798828125	1021.511474609375	1031.430297851562	918.9708251953125	1259.672485351562	1226.141479492188	1065.860229492188	1014.311157226562	1156.139404296875	913.4447631835938	1064.04345703125	1424.57421875	968.5477905273438	1230.256469726562	1340.539794921875	1045.136840820312	961.2178344726562	1301.712158203125	1012.40771484375	1086.619506835938	1378.318969726562	865.7266845703125	1216.84619140625	1401.976196289062	845.821533203125	1255.8740234375	1283.930419921875	753.56298828125	1278.746826171875	1067.47705078125	728.8933715820312	1179.001586914062	1055.827880859375	751.6119384765625	1329.992919921875	874.4578247070312	781.8662109375	1298.744873046875	846.5286865234375	720.3298950195312	1297.88623046875	979.8128051757812	722.8540649414062	1362.691528320312	716.6456298828125	813.1731567382812	1318.379638671875	765.4915771484375	736.7464599609375	1361.7880859375	794.3906860351562	786.5514526367188	1039.637573242188	1387.625366210938	1139.7119140625	984.8802490234375	1326.572143554688	1193.347045898438	954.4415893554688	1053.085083007812	1266.520263671875	932.486083984375	1016.202026367188	1214.449462890625	1123.951171875	920.59716796875	1319.085205078125	1055.168090820312	868.7188110351562	1337.263427734375	971.738525390625	1000.855529785156	1288.4599609375	1201.2666015625	790.673583984375	1362.635498046875	1176.043334960938	846.0679931640625	1361.478271484375	1112.191040039062	803.4925537109375	1363.41943359375	1095.094482421875	1614.1435546875	1097.847045898438	1278.749755859375	1640.591674804688	1007.674133300781	1227.611450195312	1635.092651367188	1126.58154296875	1148.403930664062	1625.679931640625	929.3406372070312	1249.517578125	835.768798828125	825.9868774414062	1003.21484375	831.8628540039062	1140.978881835938	1118.062377929688	883.521484375	1144.921997070312	1276.263061523438	882.4892578125	942.7727661132812	1334.254150390625	426.0654296875	904.4832153320312	1336.728149414062	582.4666748046875	883.1121215820312	1214.755493164062	21.12574005126953	821.197998046875	1311.214477539062	270.4248962402344	874.5885620117188	1374.202514648438	30.3461742401123	1003.70166015625	1295.9453125	41.02862930297852	991.1165771484375	1351.669311523438	26.72085380554199	888.09521484375	1142.694458007812	15.70276737213135	841.152099609375	1105.9306640625	454.5187072753906	1197.888549804688	1093.215087890625	695.00732421875	1229.781616210938	1020.975219726562	30.32196807861328	1161.966918945312	1085.901245117188	309.6947021484375	1207.994506835938	1227.192993164062	36.98188400268555	1247.110717773438	1195.931640625	42.01564788818359	1182.464233398438	1115.766845703125	35.5313720703125	1257.655639648438	994.7719116210938	21.67782402038574	1086.83642578125	
385	3.84	979.7056884765625	919.2150268554688	953.0112915039062	1062.049926757812	921.3823852539062	837.2740478515625	1022.360412597656	1030.677368164062	919.0264892578125	1261.684936523438	1225.277221679688	1065.244018554688	1015.766174316406	1155.487915039062	913.7737426757812	1065.751831054688	1424.05810546875	968.5758666992188	1232.296997070312	1339.696533203125	1044.599731445312	962.8880615234375	1301.23681640625	1012.55126953125	1087.963134765625	1377.640869140625	865.6339111328125	1218.2080078125	1401.142456054688	845.2559204101562	1256.835693359375	1282.931762695312	752.9884033203125	1279.6591796875	1066.6015625	727.8327026367188	1179.724731445312	1055.3037109375	749.9865112304688	1329.44677734375	873.0859985351562	780.10546875	1298.5126953125	845.7442016601562	718.158447265625	1298.379028320312	978.9220581054688	721.4910888671875	1360.738159179688	714.8707275390625	810.76025390625	1317.461303710938	764.4717407226562	734.2741088867188	1360.623168945312	792.7487182617188	784.6163940429688	1041.885498046875	1386.765502929688	1139.941284179688	987.44287109375	1325.224365234375	1193.502563476562	958.24755859375	1051.997314453125	1266.639282226562	936.4308471679688	1014.440612792969	1214.90380859375	1129.105712890625	922.2316284179688	1318.98828125	1061.199096679688	869.5767822265625	1338.337158203125	976.0186767578125	1000.109802246094	1288.727905273438	1208.875610351562	794.6346435546875	1364.266357421875	1182.503662109375	849.3278198242188	1362.266845703125	1119.29052734375	805.4632568359375	1364.954467773438	1097.335693359375	1613.656494140625	1097.588623046875	1280.869506835938	1639.95166015625	1007.125366210938	1229.942260742188	1634.490356445312	1126.13916015625	1150.379638671875	1625.250610351562	928.9471435546875	1250.63671875	835.3489379882812	826.04345703125	1004.404479980469	831.1823120117188	1141.302368164062	1119.36083984375	882.7877197265625	1145.120849609375	1277.274047851562	881.94140625	942.8040161132812	1335.589599609375	425.7421264648438	905.0802612304688	1338.278686523438	582.2933959960938	883.7084350585938	1214.819702148438	21.11735343933105	821.1139526367188	1312.219116210938	270.0968933105469	875.1016235351562	1374.282836914062	30.36879920959473	1003.803161621094	1295.967041015625	41.08145523071289	991.12451171875	1351.693603515625	26.69926452636719	888.0404663085938	1142.794555664062	15.80198574066162	840.9589233398438	1107.237182617188	454.0083312988281	1198.51708984375	1094.64306640625	693.9063720703125	1230.259399414062	1021.081909179688	30.41304016113281	1161.819580078125	1086.835083007812	309.4136657714844	1208.41357421875	1227.295654296875	36.97880172729492	1247.1904296875	1196.043701171875	42.01629257202148	1182.466918945312	1115.846801757812	35.58883666992188	1257.628295898438	994.9575805664062	21.82290458679199	1086.803100585938	
386	3.85	980.7491455078125	918.43994140625	953.3053588867188	1062.935668945312	920.8318481445312	837.4991455078125	1023.177124023438	1030.1357421875	919.1483154296875	1263.588256835938	1224.671630859375	1064.639282226562	1017.018798828125	1155.01513671875	914.1499633789062	1067.322875976562	1423.677368164062	968.5970458984375	1234.183837890625	1339.086059570312	1044.037719726562	964.4462890625	1300.921752929688	1012.822082519531	1089.124145507812	1377.060668945312	865.5712280273438	1219.377075195312	1400.449951171875	844.6666870117188	1257.67724609375	1282.106201171875	752.4154052734375	1280.652465820312	1065.922241210938	726.8098754882812	1180.520141601562	1054.891967773438	748.2980346679688	1329.110717773438	871.9638671875	778.4786376953125	1298.617309570312	845.1682739257812	716.0792236328125	1299.052368164062	978.2401733398438	720.1995849609375	1359.14501953125	713.4014892578125	808.5415649414062	1316.967529296875	763.6944580078125	731.9296875	1359.770385742188	791.4067993164062	782.8671264648438	1044.03564453125	1386.121459960938	1140.199340820312	989.923095703125	1324.121948242188	1193.71630859375	961.9080810546875	1050.996704101562	1266.521240234375	940.2208251953125	1012.962036132812	1214.940795898438	1133.764404296875	923.5531616210938	1318.671264648438	1066.6474609375	870.156494140625	1338.875610351562	980.0216674804688	999.3550415039062	1288.656127929688	1215.686401367188	798.10595703125	1365.488647460938	1188.267211914062	852.1580810546875	1362.781372070312	1125.663696289062	807.0765991210938	1365.95166015625	1099.523071289062	1613.304321289062	1097.296142578125	1282.94580078125	1639.362548828125	1006.553100585938	1232.260864257812	1634	1125.732421875	1152.317749023438	1624.920166015625	928.5224609375	1251.669189453125	835.045654296875	826.1265869140625	1005.592346191406	830.7086791992188	1141.580688476562	1120.699340820312	882.25244140625	1145.321655273438	1278.33642578125	881.58984375	942.8232421875	1336.864013671875	425.4695129394531	905.514892578125	1339.78564453125	582.19384765625	884.1566162109375	1214.877807617188	21.11755180358887	821.0850830078125	1313.13720703125	269.7896728515625	875.445068359375	1374.399047851562	30.37822723388672	1003.859130859375	1296.015502929688	41.13227462768555	991.1268920898438	1351.72265625	26.67738151550293	887.9805297851562	1142.890380859375	15.91794872283936	840.8305053710938	1108.266479492188	453.6024475097656	1198.961791992188	1096.0693359375	693.0132446289062	1230.693481445312	1021.155883789062	30.49578857421875	1161.699096679688	1087.557983398438	309.1858520507812	1208.7109375	1227.377563476562	36.98418426513672	1247.256225585938	1196.123779296875	42.01652526855469	1182.464965820312	1115.904541015625	35.64316940307617	1257.598388671875	995.093017578125	21.90921401977539	1086.773071289062	
